<?xml version="1.0" standalone="no"?>
<!DOCTYPE svg PUBLIC "-//W3C//DTD SVG 20010904//EN"
 "http://www.w3.org/TR/2001/REC-SVG-20010904/DTD/svg10.dtd">
<svg version="1.0" xmlns="http://www.w3.org/2000/svg"
 width="64.000000pt" height="64.000000pt" viewBox="0 0 64.000000 64.000000"
 preserveAspectRatio="xMidYMid meet">
<metadata>
Created by potrace 1.11, written by Peter Selinger 2001-2013
</metadata>
<g transform="translate(0.000000,64.000000) scale(0.100000,-0.100000)"
fill="#000000" stroke="none">
<path d="M240 627 c-94 -26 -163 -88 -206 -182 -87 -190 40 -413 251 -442 l45
-6 0 61 c0 45 6 73 24 107 31 58 41 134 27 210 -15 82 -37 110 -87 110 l-39 0
0 -45 c0 -44 1 -45 35 -50 l35 -5 0 -75 0 -75 -35 -5 c-32 -5 -35 -8 -38 -43
-4 -43 11 -67 39 -67 16 0 19 -8 19 -51 l0 -52 -42 7 c-53 9 -133 52 -164 89
-52 62 -77 127 -78 203 -2 259 295 397 492 229 142 -122 128 -368 -28 -471
-46 -31 -54 -52 -10 -29 46 24 100 85 129 145 21 44 26 70 26 130 0 92 -23
148 -90 219 -77 82 -200 118 -305 88z"/>
</g>
</svg>
