<?xml version="1.0" standalone="no"?>
<!DOCTYPE svg PUBLIC "-//W3C//DTD SVG 20010904//EN"
 "http://www.w3.org/TR/2001/REC-SVG-20010904/DTD/svg10.dtd">
<svg version="1.0" xmlns="http://www.w3.org/2000/svg"
 width="64.000000pt" height="64.000000pt" viewBox="0 0 64.000000 64.000000"
 preserveAspectRatio="xMidYMid meet">
<metadata>
Created by potrace 1.11, written by Peter Selinger 2001-2013
</metadata>
<g transform="translate(0.000000,64.000000) scale(0.100000,-0.100000)"
fill="#000000" stroke="none">
<path d="M0 356 l0 -284 87 -37 87 -37 75 36 76 37 82 -36 82 -35 75 37 76 37
0 283 0 283 -60 -30 c-49 -25 -60 -35 -60 -55 0 -29 2 -30 40 -10 l30 16 0
-229 0 -228 -45 -22 c-25 -12 -52 -22 -60 -22 -8 0 -26 24 -39 53 -30 62 -66
87 -128 87 -51 0 -57 4 -87 53 -12 20 -29 37 -38 37 -8 0 -26 9 -40 20 -14 11
-43 23 -65 26 l-38 7 0 108 c0 60 3 109 6 109 3 0 27 -9 54 -21 61 -26 91 -22
108 14 17 35 12 41 -21 26 -22 -10 -35 -8 -79 11 -29 13 -68 29 -85 37 l-33
13 0 -284z"/>
<path d="M333 629 c-38 -11 -70 -49 -78 -93 -5 -24 4 -53 44 -136 28 -58 51
-115 51 -127 0 -16 6 -23 20 -23 14 0 20 7 20 22 0 12 23 70 50 128 41 86 49
113 44 139 -7 34 -56 91 -79 91 -7 0 -19 2 -27 4 -7 2 -27 0 -45 -5z"/>
</g>
</svg>
