<?xml version="1.0" standalone="no"?>
<!DOCTYPE svg PUBLIC "-//W3C//DTD SVG 20010904//EN"
 "http://www.w3.org/TR/2001/REC-SVG-20010904/DTD/svg10.dtd">
<svg version="1.0" xmlns="http://www.w3.org/2000/svg"
 width="48.000000pt" height="48.000000pt" viewBox="0 0 48.000000 48.000000"
 preserveAspectRatio="xMidYMid meet">
<metadata>
Created by potrace 1.11, written by Peter Selinger 2001-2013
</metadata>
<g transform="translate(0.000000,48.000000) scale(0.100000,-0.100000)"
fill="#000000" stroke="none">
<path d="M22 424 c-20 -14 -22 -23 -22 -119 0 -92 2 -106 19 -114 10 -6 21
-25 25 -42 7 -39 23 -59 45 -59 9 0 22 -9 29 -20 17 -28 77 -28 94 0 17 27 78
27 103 0 23 -26 67 -26 90 0 10 11 24 20 31 20 29 0 44 31 44 89 0 50 -5 66
-40 119 -37 59 -42 62 -79 62 -36 0 -40 3 -46 31 -9 41 -35 49 -163 49 -81 0
-113 -4 -130 -16z m256 -116 l3 -98 -126 0 -125 0 0 94 c0 66 4 96 13 100 6 2
62 4 122 3 l110 -2 3 -97z m140 -28 c26 -41 32 -60 32 -105 0 -60 -13 -70 -45
-35 -10 11 -30 20 -45 20 -15 0 -35 -9 -45 -20 -25 -27 -86 -27 -103 0 -17 28
-77 28 -94 0 -19 -30 -38 -25 -38 10 l0 30 104 0 c122 0 128 4 134 91 4 59 5
59 36 59 26 0 36 -8 64 -50z"/>
</g>
</svg>
